<?xml version="1.0" encoding="UTF-8" standalone="no"?>
<!-- Created with Inkscape (http://www.inkscape.org/) -->
<svg
   xmlns:dc="http://purl.org/dc/elements/1.1/"
   xmlns:cc="http://creativecommons.org/ns#"
   xmlns:rdf="http://www.w3.org/1999/02/22-rdf-syntax-ns#"
   xmlns:svg="http://www.w3.org/2000/svg"
   xmlns="http://www.w3.org/2000/svg"
   xmlns:xlink="http://www.w3.org/1999/xlink"
   xmlns:sodipodi="http://sodipodi.sourceforge.net/DTD/sodipodi-0.dtd"
   xmlns:inkscape="http://www.inkscape.org/namespaces/inkscape"
   width="800"
   height="150"
   id="svg2"
   sodipodi:version="0.32"
   inkscape:version="0.46"
   version="1.0"
   sodipodi:docname="Evo-rì.svg"
   inkscape:output_extension="org.inkscape.output.svg.inkscape">
  <defs
     id="defs4">
    <linearGradient
       id="linearGradient3731">
      <stop
         id="stop3733"
         offset="0"
         style="stop-color:#ffab4e;stop-opacity:0.49397591;" />
      <stop
         id="stop3735"
         offset="1"
         style="stop-color:#ffa920;stop-opacity:0.1746988;" />
    </linearGradient>
    <linearGradient
       id="linearGradient3717">
      <stop
         style="stop-color:#ffffff;stop-opacity:1;"
         offset="0"
         id="stop3719" />
      <stop
         style="stop-color:#ffffff;stop-opacity:0;"
         offset="1"
         id="stop3721" />
    </linearGradient>
    <inkscape:perspective
       sodipodi:type="inkscape:persp3d"
       inkscape:vp_x="0 : 526.18109 : 1"
       inkscape:vp_y="0 : 1000 : 0"
       inkscape:vp_z="744.09448 : 526.18109 : 1"
       inkscape:persp3d-origin="372.04724 : 350.78739 : 1"
       id="perspective10" />
    <radialGradient
       inkscape:collect="always"
       xlink:href="#linearGradient3717"
       id="radialGradient3725"
       cx="65.416916"
       cy="62.555084"
       fx="65.416916"
       fy="62.555084"
       r="37.857143"
       gradientTransform="matrix(1.4891763,-1.3355602,0.7010925,0.7817325,-73.059928,98.288322)"
       gradientUnits="userSpaceOnUse" />
    <radialGradient
       inkscape:collect="always"
       xlink:href="#linearGradient3731"
       id="radialGradient3729"
       gradientUnits="userSpaceOnUse"
       gradientTransform="matrix(1.1008449,-0.9128604,0.3429476,0.4111085,-12.184928,110.71303)"
       cx="67.272972"
       cy="122.96683"
       fx="67.272972"
       fy="122.96683"
       r="37.857143" />
    <inkscape:perspective
       id="perspective3814"
       inkscape:persp3d-origin="150 : 100 : 1"
       inkscape:vp_z="300 : 150 : 1"
       inkscape:vp_y="0 : 1000 : 0"
       inkscape:vp_x="0 : 150 : 1"
       sodipodi:type="inkscape:persp3d" />
    <inkscape:perspective
       id="perspective3852"
       inkscape:persp3d-origin="150 : 100 : 1"
       inkscape:vp_z="300 : 150 : 1"
       inkscape:vp_y="0 : 1000 : 0"
       inkscape:vp_x="0 : 150 : 1"
       sodipodi:type="inkscape:persp3d" />
    <inkscape:perspective
       id="perspective3892"
       inkscape:persp3d-origin="150 : 100 : 1"
       inkscape:vp_z="300 : 150 : 1"
       inkscape:vp_y="0 : 1000 : 0"
       inkscape:vp_x="0 : 150 : 1"
       sodipodi:type="inkscape:persp3d" />
  </defs>
  <sodipodi:namedview
     id="base"
     pagecolor="#ffffff"
     bordercolor="#666666"
     borderopacity="1.0"
     inkscape:pageopacity="0.0"
     inkscape:pageshadow="2"
     inkscape:zoom="0.7"
     inkscape:cx="463.04425"
     inkscape:cy="68.697663"
     inkscape:document-units="px"
     inkscape:current-layer="layer1"
     showgrid="false"
     inkscape:window-width="1183"
     inkscape:window-height="860"
     inkscape:window-x="70"
     inkscape:window-y="120" />
  <metadata
     id="metadata7">
    <rdf:RDF>
      <cc:Work
         rdf:about="">
        <dc:format>image/svg+xml</dc:format>
        <dc:type
           rdf:resource="http://purl.org/dc/dcmitype/StillImage" />
      </cc:Work>
    </rdf:RDF>
  </metadata>
  <g
     inkscape:label="Calque 1"
     inkscape:groupmode="layer"
     id="layer1">
    <path
       style="font-size:175px;font-style:normal;font-variant:normal;font-weight:normal;font-stretch:normal;text-align:start;line-height:125%;text-anchor:start;fill:#000000;fill-opacity:1;stroke:none;stroke-width:1px;stroke-linecap:butt;stroke-linejoin:miter;stroke-opacity:1;font-family:MS Mincho"
       d="M 735.46989,16.912669 L 773.86191,16.912669 L 776.42138,13.500044 L 782.39347,17.765825 C 784.0997,19.187824 783.53093,20.183172 780.68716,20.751871 L 780.68716,89.004362 C 776.99007,92.416982 775.14157,92.559172 775.14164,89.430942 L 775.14164,81.752532 L 734.61673,81.752532 L 734.61673,94.549882 C 730.91969,97.962492 729.07118,98.104682 729.07122,94.976452 L 729.07122,12.22031 L 735.46989,16.912669 z M 775.14164,19.472137 L 734.61673,19.472137 L 734.61673,46.346555 L 775.14164,46.346555 L 775.14164,19.472137 z M 775.14164,48.906024 L 734.61673,48.906024 L 734.61673,79.193064 L 775.14164,79.193064 L 775.14164,48.906024 z"
       id="text2445" />
    <g
       id="g3753"
       transform="translate(-16.162441,-12.121831)">
      <path
         id="path3743"
         d="M 72.8125,16.78125 C 70.022356,17.045325 68.450553,25.110447 66.4375,30.15625 C 70.752087,28.863667 75.329964,28.1875 80.0625,28.1875 C 80.945454,28.1875 81.816373,28.202282 82.6875,28.25 C 79.350038,23.690914 75.670123,16.510787 72.8125,16.78125 z M 102.4375,21.3125 C 99.77255,21.347073 95.170809,26.4507 91.34375,29.5625 C 96.603187,30.85024 101.52697,32.995362 105.9375,35.875 C 105.39207,30.286334 105.69818,22.600927 103.15625,21.4375 C 102.93473,21.336112 102.69951,21.309101 102.4375,21.3125 z M 45.375,27.5625 C 44.916629,27.587549 44.53229,27.714624 44.21875,27.9375 C 41.858749,29.615081 44.769996,37.838826 45.4375,43.21875 C 49.296388,39.102224 53.868261,35.662701 58.96875,33.125 C 54.425539,31.205316 48.443775,27.394801 45.375,27.5625 z M 124.75,39.75 C 121.82302,39.638344 117.04084,41.02975 113.1875,41.6875 C 116.91965,45.33026 120.05739,49.580764 122.4375,54.28125 C 124.77793,49.210807 128.71735,42.896358 127.125,40.65625 C 126.70156,40.060561 125.8593,39.792317 124.75,39.75 z M 40.78125,48.96875 C 35.170849,49.751522 26.26256,49.116479 25,51.875 C 23.774445,54.552672 30.672512,60.367832 33.875,64.71875 C 35.232297,59.004754 37.571885,53.678108 40.78125,48.96875 z M 125.875,63.28125 C 126.95458,67.262052 127.5625,71.42831 127.5625,75.75 C 127.5625,76.728451 127.52698,77.692381 127.46875,78.65625 C 132.02755,75.450331 138.50753,72.002243 138.25,69.28125 C 138.00264,66.667669 130.92057,65.120795 125.875,63.28125 z M 32.75,71.65625 C 28.325512,75.176185 20.053777,79.154977 20.34375,82.21875 C 20.620468,85.142468 29.449418,86.748537 34.40625,88.90625 C 33.206767,84.726997 32.5625,80.313998 32.5625,75.75 C 32.5625,74.364442 32.633948,73.011861 32.75,71.65625 z M 125.875,88.25 C 124.49001,93.347652 122.28941,98.109814 119.40625,102.375 C 124.97464,101.85823 132.44534,102.13412 133.59375,99.625 C 134.68508,97.240592 129.32527,92.362964 125.875,88.25 z M 36.875,95.59375 C 34.7721,100.84923 29.699583,108.3549 31.46875,110.84375 C 33.137442,113.19125 41.306065,110.31269 46.6875,109.625 C 42.625243,105.6083 39.288876,100.85352 36.875,95.59375 z M 113.375,109.65625 C 109.61531,113.36635 105.25766,116.42065 100.4375,118.71875 C 105.56196,121.03392 112.08487,125.22166 114.375,123.59375 C 116.54207,122.05331 114.28237,114.96966 113.375,109.65625 z M 52.53125,114.53125 C 53.258114,120.1539 52.723448,128.82029 55.4375,130.0625 C 57.97814,131.22534 63.333609,125.0577 67.59375,121.6875 C 62.119119,120.19894 57.031963,117.74283 52.53125,114.53125 z M 91.90625,121.84375 C 88.112918,122.82211 84.159375,123.34375 80.0625,123.34375 C 78.64466,123.34375 77.230117,123.27832 75.84375,123.15625 C 79.200141,127.70952 82.903244,134.99114 85.78125,134.71875 C 88.477948,134.46352 90.018653,126.90526 91.9375,121.84375 C 91.927904,121.84623 91.915848,121.84127 91.90625,121.84375 z"
         style="fill:#fcff01;fill-opacity:1;fill-rule:nonzero;stroke:#ffdb10;stroke-width:2;stroke-linecap:butt;stroke-linejoin:round;stroke-miterlimit:4;stroke-dasharray:none;stroke-dashoffset:12.04000082;stroke-opacity:1" />
      <g
         id="g3748">
        <path
           sodipodi:type="arc"
           style="fill:#ffff00;fill-opacity:1;fill-rule:nonzero;stroke:#ffdb10;stroke-width:2.33126068;stroke-linecap:butt;stroke-linejoin:miter;marker-start:none;stroke-miterlimit:4;stroke-dasharray:none;stroke-dashoffset:12.04;stroke-opacity:1"
           id="path2465"
           sodipodi:cx="99.285713"
           sodipodi:cy="74.285713"
           sodipodi:rx="37.857143"
           sodipodi:ry="38.57143"
           d="M 137.14286,74.285713 A 37.857143,38.57143 0 1 1 61.42857,74.285713 A 37.857143,38.57143 0 1 1 137.14286,74.285713 z"
           transform="matrix(1.08155,0,0,1.06329,-27.5248,-3.27305)" />
        <path
           sodipodi:type="arc"
           style="fill:url(#radialGradient3725);fill-opacity:1;fill-rule:nonzero;stroke:none;stroke-width:2.5;stroke-linecap:butt;stroke-linejoin:miter;stroke-miterlimit:4;stroke-dasharray:none;stroke-dashoffset:12.04000082;stroke-opacity:1"
           id="path3705"
           sodipodi:cx="80"
           sodipodi:cy="75.89286"
           sodipodi:rx="37.857143"
           sodipodi:ry="37.67857"
           d="M 117.85714,75.89286 A 37.857143,37.67857 0 1 1 42.142857,75.89286 A 37.857143,37.67857 0 1 1 117.85714,75.89286 z"
           transform="matrix(1.0566038,0,0,1.0616114,-4.5282996,-4.6758656)" />
        <path
           sodipodi:type="arc"
           style="fill:url(#radialGradient3729);fill-opacity:1;fill-rule:nonzero;stroke:none;stroke-width:2.5;stroke-linecap:butt;stroke-linejoin:miter;stroke-miterlimit:4;stroke-dasharray:none;stroke-dashoffset:12.04000082;stroke-opacity:1"
           id="path3727"
           sodipodi:cx="80"
           sodipodi:cy="75.89286"
           sodipodi:rx="37.857143"
           sodipodi:ry="37.67857"
           d="M 117.85714,75.89286 A 37.857143,37.67857 0 1 1 42.142857,75.89286 A 37.857143,37.67857 0 1 1 117.85714,75.89286 z"
           transform="matrix(1.0566038,0,0,1.0616114,-4.8854468,-4.9590449)" />
      </g>
    </g>
    <path
       nodetypes="csszscszssczzs"
       id="path1979"
       d="M 256.02266,142.52271 C 225.33538,142.52271 205.42255,124.73249 206.08046,102.53354 C 206.9056,74.844846 222.3423,62.808536 252.33166,62.807016 C 290.88046,62.805092 301.20885,82.48553 301.06312,98.961552 C 299.20402,135.82092 268.05395,142.52271 256.02266,142.52271 z M 257.0637,132.51468 C 280.07835,132.45596 290.54653,113.57164 290.61247,98.871454 C 290.69818,79.765894 278.27897,72.183991 251.57945,71.515417 C 225.03284,70.84683 214.67283,90.377249 214.78802,103.61633 C 214.86733,112.73337 222.81905,132.60244 257.0637,132.51468 z M 246.75511,103.90497 C 243.71803,101.93699 244.55317,96.150616 248.92004,93.813537 C 253.28692,91.476452 263.84598,93.520553 263.16877,100.66699 C 262.50593,107.66185 251.3231,106.86496 246.75511,103.90497 z"
       style="fill:#000000" />
    <g
       id="g3855"
       inkscape:label="Layer 1"
       transform="matrix(0.3775908,0,0,0.3775908,395.92606,38.955176)">
      <path
         sodipodi:nodetypes="csssssssssccssccsccsssc"
         id="path2210"
         d="M 21.320007,107.7384 C -15.710085,66.934968 -20.700837,47.569428 -4.4753072,7.6453676 C 24.979193,-64.829671 30.180188,-71.703013 55.566974,-71.703013 C 65.236798,-71.703013 81.982208,-74.378359 92.779048,-77.648254 C 158.67459,-97.605203 160.97211,-97.663884 185.31005,-80.012817 C 227.65561,-49.301729 236.32058,-33.510242 238.02386,16.055918 C 239.23122,51.192048 237.21147,63.294828 228.72408,71.782218 C 222.76087,77.745428 217.88192,84.946428 217.88192,87.784528 C 217.88192,107.61254 90.679768,119.62052 69.261938,101.81438 C 59.191766,93.442248 58.075487,93.888808 58.075487,106.28947 C 58.075487,123.98701 36.82622,124.82465 21.320007,107.7384 z M 137.97871,68.850278 C 198.31285,62.347688 189.25017,64.683998 201.44468,52.489418 C 222.4692,31.464898 210.05735,-26.124952 181.71888,-39.036858 C 143.60926,-56.400713 45.290972,-41.0205 45.290972,-17.695032 C 32.796439,4.7881776 23.222608,8.8239476 19.721942,41.557008 C 19.721942,68.654798 37.820598,83.673088 64.393528,78.625508 C 76.739478,76.280378 109.85277,71.881548 137.97871,68.850278 z M 75.654198,32.559008 C 60.764777,28.668038 61.551656,21.003338 78.457578,5.2531276 C 103.98577,-18.530052 160.3516,-8.4873024 160.3516,19.844228 C 160.3516,24.992808 155.80159,30.951348 150.2404,33.085338 C 138.97922,37.406698 92.961748,37.081968 75.654198,32.559008 z"
         style="fill:#000000" />
    </g>
    <path
       id="path1875"
       style="fill:#000000;fill-opacity:1"
       d="M 592.39968,138.58562 C 585.10392,137.36245 577.12491,132.66117 576.15449,124.67061 C 571.28782,104.84608 574.4488,84.357666 575.38663,64.281217 C 576.23565,55.81137 579.21758,45.955697 587.69141,42.264635 C 597.5505,38.203475 608.44225,39.749797 618.78334,40.187117 C 624.76864,40.89231 631.81114,43.731778 633.35907,50.20185 C 635.28344,58.630634 633.46304,67.316875 634.41757,75.838478 C 634.6946,92.627079 635.5103,109.78438 631.21211,126.16866 C 627.64901,134.85459 618.00371,139.62941 608.91912,139.27282 C 603.41473,139.76956 597.84163,139.56224 592.39968,138.58562 z M 615.15388,130.6906 C 630.46094,125.18452 627.09477,104.55699 627.21282,90.982388 C 611.67402,90.225064 596.10723,90.500085 580.56623,91.040166 C 581.1184,103.52791 580.07798,116.68113 585.56898,128.30374 C 593.8919,134.00658 605.62914,133.23365 615.15388,130.6906 z M 627.2868,82.332988 C 627.45771,72.169001 627.90902,61.805619 625.24415,51.889423 C 621.46103,46.007256 613.6478,44.654724 607.19006,45.680807 C 597.65679,45.457683 586.58784,49.748191 583.37359,59.501809 C 580.87383,66.317136 581.05862,76.261636 580.9542,83.421357 C 587.7457,82.053275 610.96366,86.099272 627.2868,82.332988 z" />
    <path
       style="fill:#000000;fill-opacity:1;fill-rule:evenodd;stroke:none;stroke-width:5;stroke-linecap:butt;stroke-linejoin:miter;stroke-miterlimit:4;stroke-dasharray:none;stroke-opacity:1"
       d="M 698.13383,80.828191 L 694.64029,80.574928 L 702.2537,67.611553 L 661.583,88.976747 L 661.57539,88.962262 L 660.36552,86.659156 L 660.35791,86.644672 L 701.02861,65.279478 L 686.03423,64.19246 L 687.80808,61.172126 L 706.35021,62.502411 L 706.44296,62.509131 L 707.06128,62.553959 L 708.79259,62.679473 L 708.8002,62.693958 L 707.92113,64.190757 L 707.56008,64.805517 L 698.13383,80.828191 z"
       id="path3898" />
    <path
       style="fill:#000000;fill-opacity:1;fill-rule:evenodd;stroke:none;stroke-width:5;stroke-linecap:butt;stroke-linejoin:miter;stroke-miterlimit:4;stroke-dasharray:none;stroke-opacity:1"
       d="M 169.51641,96.860244 L 167.33821,94.117184 L 182.03392,90.947126 L 138.77839,75.470148 L 138.7839,75.454742 L 139.66033,73.005263 L 139.66585,72.989858 L 182.92137,88.466836 L 173.57245,76.693528 L 176.9964,75.954938 L 188.56758,90.504444 L 188.62541,90.577272 L 189.01093,91.062768 L 190.09039,92.422158 L 190.08488,92.437563 L 188.38806,92.803593 L 187.69114,92.953924 L 169.51641,96.860244 z"
       id="path3900"
       inkscape:transform-center-x="-17.172593"
       inkscape:transform-center-y="-25.253814" />
    <path
       style="fill:#000000;fill-opacity:1;fill-rule:evenodd;stroke:none;stroke-width:5;stroke-linecap:butt;stroke-linejoin:miter;stroke-miterlimit:4;stroke-dasharray:none;stroke-opacity:1"
       d="M 361.25919,79.859686 L 357.79752,79.325133 L 366.4329,67.018909 L 324.16971,85.030003 L 324.16329,85.014951 L 323.14336,82.621666 L 323.13694,82.606614 L 365.40014,64.59552 L 350.54251,62.301195 L 352.55447,59.433971 L 370.92861,62.257262 L 371.02052,62.271451 L 371.6332,62.366064 L 373.34872,62.630978 L 373.35513,62.64603 L 372.35806,64.066953 L 371.94855,64.650548 L 361.25919,79.859686 z"
       id="path3902" />
    <path
       style="fill:#000000;fill-opacity:1;fill-rule:evenodd;stroke:none;stroke-width:5;stroke-linecap:butt;stroke-linejoin:miter;stroke-miterlimit:4;stroke-dasharray:none;stroke-opacity:1"
       d="M 531.15101,79.68765 L 528.97281,76.94459 L 543.66852,73.774532 L 500.41299,58.297554 L 500.4185,58.282149 L 501.29493,55.832669 L 501.30045,55.817265 L 544.55597,71.294242 L 535.20705,59.520935 L 538.631,58.782345 L 550.20218,73.331851 L 550.26001,73.404678 L 550.64553,73.890174 L 551.72499,75.249564 L 551.71948,75.26497 L 550.02266,75.630999 L 549.32574,75.78133 L 531.15101,79.68765 z"
       id="path3904" />
  </g>
</svg>
